[Header]
FileType HTR
DataType HTRS
FileVersion 1
NumSegments 64
NumFrames 4
DataFrameRate 24
EulerRotationOrder ZYX
CalibrationUnits mm
RotationUnits Degrees
GlobalAxisofGravity Y
BoneLengthAxis Y
ScaleFactor 1.0
[SegmentNames&Hierarchy]
Hips	GLOBAL
Spine	Hips
Spine1	Spine
Spine2	Spine1
Neck	Spine2
Head	Neck
LeftEye	Head
RightEye	Head
LeftShoulder	Spine2
LeftArm	LeftShoulder
LeftForeArm	LeftArm
LeftHand	LeftForeArm
LeftHandThumb1	LeftHand
LeftHandThumb2	LeftHandThumb1
LeftHandThumb3	LeftHandThumb2
LeftHandThumb4	LeftHandThumb3
LeftHandIndex1	LeftHand
LeftHandIndex2	LeftHandIndex1
LeftHandIndex3	LeftHandIndex2
LeftHandIndex4	LeftHandIndex3
LeftHandMiddle1	LeftHand
LeftHandMiddle2	LeftHandMiddle1
LeftHandMiddle3	LeftHandMiddle2
LeftHandMiddle4	LeftHandMiddle3
LeftHandRing1	LeftHand
LeftHandRing2	LeftHandRing1
LeftHandRing3	LeftHandRing2
LeftHandRing4	LeftHandRing3
LeftHandPinky1	LeftHand
LeftHandPinky2	LeftHandPinky1
LeftHandPinky3	LeftHandPinky2
LeftHandPinky4	LeftHandPinky3
RightShoulder	Spine2
RightArm	RightShoulder
RightForeArm	RightArm
RightHand	RightForeArm
RightHandPinky1	RightHand
RightHandPinky2	RightHandPinky1
RightHandPinky3	RightHandPinky2
RightHandPinky4	RightHandPinky3
RightHandRing1	RightHand
RightHandRing2	RightHandRing1
RightHandRing3	RightHandRing2
RightHandRing4	RightHandRing3
RightHandMiddle1	RightHand
RightHandMiddle2	RightHandMiddle1
RightHandMiddle3	RightHandMiddle2
RightHandMiddle4	RightHandMiddle3
RightHandIndex1	RightHand
RightHandIndex2	RightHandIndex1
RightHandIndex3	RightHandIndex2
RightHandIndex4	RightHandIndex3
RightHandThumb1	RightHand
RightHandThumb2	RightHandThumb1
RightHandThumb3	RightHandThumb2
RightHandThumb4	RightHandThumb3
LeftUpLeg	Hips
LeftLeg	LeftUpLeg
LeftFoot	LeftLeg
LeftToeBase	LeftFoot
RightUpLeg	Hips
RightLeg	RightUpLeg
RightFoot	RightLeg
RightToeBase	RightFoot
[BasePosition]
Hips	0	0	0	0	0	0	1
Spine	0	0	0	0	0	0	1
Spine1	0	0	0	0	0	0	1
Spine2	0	0	0	0	0	0	1
Neck	0	0	0	0	0	0	1
Head	0	0	0	0	0	0	1
LeftEye	0	0	0	0	0	0	1
RightEye	0	0	0	0	0	0	1
LeftShoulder	0	0	0	0	0	0	1
LeftArm	0	0	0	0	0	0	1
LeftForeArm	0	0	0	0	0	0	1
LeftHand	0	0	0	0	0	0	1
LeftHandThumb1	0	0	0	0	0	0	1
LeftHandThumb2	0	0	0	0	0	0	1
LeftHandThumb3	0	0	0	0	0	0	1
LeftHandThumb4	0	0	0	0	0	0	1
LeftHandIndex1	0	0	0	0	0	0	1
LeftHandIndex2	0	0	0	0	0	0	1
LeftHandIndex3	0	0	0	0	0	0	1
LeftHandIndex4	0	0	0	0	0	0	1
LeftHandMiddle1	0	0	0	0	0	0	1
LeftHandMiddle2	0	0	0	0	0	0	1
LeftHandMiddle3	0	0	0	0	0	0	1
LeftHandMiddle4	0	0	0	0	0	0	1
LeftHandRing1	0	0	0	0	0	0	1
LeftHandRing2	0	0	0	0	0	0	1
LeftHandRing3	0	0	0	0	0	0	1
LeftHandRing4	0	0	0	0	0	0	1
LeftHandPinky1	0	0	0	0	0	0	1
LeftHandPinky2	0	0	0	0	0	0	1
LeftHandPinky3	0	0	0	0	0	0	1
LeftHandPinky4	0	0	0	0	0	0	1
RightShoulder	0	0	0	0	0	0	1
RightArm	0	0	0	0	0	0	1
RightForeArm	0	0	0	0	0	0	1
RightHand	0	0	0	0	0	0	1
RightHandPinky1	0	0	0	0	0	0	1
RightHandPinky2	0	0	0	0	0	0	1
RightHandPinky3	0	0	0	0	0	0	1
RightHandPinky4	0	0	0	0	0	0	1
RightHandRing1	0	0	0	0	0	0	1
RightHandRing2	0	0	0	0	0	0	1
RightHandRing3	0	0	0	0	0	0	1
RightHandRing4	0	0	0	0	0	0	1
RightHandMiddle1	0	0	0	0	0	0	1
RightHandMiddle2	0	0	0	0	0	0	1
RightHandMiddle3	0	0	0	0	0	0	1
RightHandMiddle4	0	0	0	0	0	0	1
RightHandIndex1	0	0	0	0	0	0	1
RightHandIndex2	0	0	0	0	0	0	1
RightHandIndex3	0	0	0	0	0	0	1
RightHandIndex4	0	0	0	0	0	0	1
RightHandThumb1	0	0	0	0	0	0	1
RightHandThumb2	0	0	0	0	0	0	1
RightHandThumb3	0	0	0	0	0	0	1
RightHandThumb4	0	0	0	0	0	0	1
LeftUpLeg	0	0	0	0	0	0	1
LeftLeg	0	0	0	0	0	0	1
LeftFoot	0	0	0	0	0	0	1
LeftToeBase	0	0	0	0	0	0	1
RightUpLeg	0	0	0	0	0	0	1
RightLeg	0	0	0	0	0	0	1
RightFoot	0	0	0	0	0	0	1
RightToeBase	0	0	0	0	0	0	1
[Hips]
27	-23.94528198	847.572998	-327.9631348	15.5256567	-7.719918251	2.232804298	1.0
28	-30.08010864	762.7340088	-367.8703613	19.80474091	-6.208556175	0.9467346072	1.0
29	-36.2050209	684.4180298	-406.3881226	23.32638359	-4.71036005	-0.2675011754	1.0
30	-41.94461441	641.8404541	-436.8447571	22.83507347	-3.256703377	-1.107832789	1.0
[Spine]
27	0	101.8159943	1.315000057	4.034123421	-0.3385794163	-1.222050309	1.0
28	0	101.8159943	1.315000057	4.477620602	-0.3741708398	-1.211349726	1.0
29	0	101.8159943	1.315000057	5.025211334	-0.3745395243	-1.223787427	1.0
30	0	101.8159943	1.315000057	6.120630264	-0.2011433095	-1.353902221	1.0
[Spine1]
27	0	100.8349991	-10.00800037	8.074998856	-0.5797272325	-2.337934732	1.0
28	0	100.8349991	-10.00800037	8.969820976	-0.8172687292	-2.665879011	1.0
29	0	100.8349991	-10.00800037	10.07203388	-0.9763826728	-2.998629093	1.0
30	0	100.8349991	-10.00800037	12.26546669	-0.7332475185	-3.325777054	1.0
[Spine2]
27	0	91	-13.73399925	8.075001717	-0.5797274113	-2.337934732	1.0
28	0	91	-13.73399925	8.969823837	-0.8172685504	-2.66587925	1.0
29	0	91	-13.73399925	10.07203579	-0.9763823748	-2.998629093	1.0
30	0	91	-13.73399925	12.26547146	-0.7332491279	-3.325777531	1.0
[Neck]
27	0	166.7169952	-25.16200066	9.385341644	1.363521457	-0.1149574146	1.0
28	0	166.7169952	-25.16200066	8.102341652	1.303153396	0.4712897837	1.0
29	0	166.7169952	-25.16200066	6.766990662	1.223842144	1.074079871	1.0
30	0	166.7169952	-25.16200066	5.111254692	1.047592878	1.748081803	1.0
[Head]
27	0	96.17900085	16.84999847	-32.64007187	5.571647167	-1.479748487	1.0
28	0	96.17900085	16.84999847	-38.63183594	5.618157864	-1.067278504	1.0
29	0	96.17900085	16.84999847	-44.30350876	5.598988056	-0.6452584267	1.0
30	0	96.17900085	16.84999847	-48.24196625	5.226383686	-0.1457182169	1.0
[LeftEye]
27	30.6760006	64.09500122	92.83599854	0	0	0	1.0
28	30.6760006	64.09500122	92.83599854	0	0	0	1.0
29	30.6760006	64.09500122	92.83599854	0	0	0	1.0
30	30.6760006	64.09500122	92.83599854	0	0	0	1.0
[RightEye]
27	-30.6760006	64.09500122	92.83499908	0	0	0	1.0
28	-30.6760006	64.09500122	92.83499908	0	0	0	1.0
29	-30.6760006	64.09500122	92.83499908	0	0	0	1.0
30	-30.6760006	64.09500122	92.83499908	0	0	0	1.0
[LeftShoulder]
27	45.70400238	109.4599991	-26.28000069	1.036167145	-16.66215706	-3.1998806	1.0
28	45.70400238	109.4599991	-26.28000069	1.199411511	-18.53929901	-3.431611538	1.0
29	45.70400238	109.4599991	-26.28000069	1.448877931	-20.29270172	-3.800594807	1.0
30	45.70400238	109.4599991	-26.28000069	2.165886641	-21.23631668	-4.969212532	1.0
[LeftArm]
27	105.923996	-5.24600029	-22.32099915	-28.29563141	59.7711792	-88.20178223	1.0
28	105.923996	-5.24600029	-22.32099915	-51.02759933	61.08007431	-115.3129272	1.0
29	105.923996	-5.24600029	-22.32099915	-67.38834381	60.75403976	-136.1085815	1.0
30	105.923996	-5.24600029	-22.32099915	-49.16081619	52.49882889	-122.233551	1.0
[LeftForeArm]
27	278.414978	-0.0009999999311	0	-355.7317505	-30.43581581	357.9068909	1.0
28	278.414978	-0.0009999999311	0	-356.5136414	-27.53473663	358.4356995	1.0
29	278.414978	-0.0009999999311	0	-357.4892883	-25.97682571	358.9417725	1.0
30	278.414978	-0.0009999999311	0	-358.7099304	-24.25395012	359.573761	1.0
[LeftHand]
27	283.2879944	0	0	16.95498085	8.050078392	-4.607563972	1.0
28	283.2879944	0	0	0.4707091749	9.455771446	-0.0572601147	1.0
29	283.2879944	0	0	-15.19831085	11.27984142	3.712468147	1.0
30	283.2879944	0	0	-25.115942	15.21217823	2.240809441	1.0
[LeftHandThumb1]
27	24.6609993	-15.75	26.8239994	-4.324611664	0.9939271808	12.09111404	1.0
28	24.6609993	-15.75	26.8239994	-4.961326599	-0.2434775382	12.13084888	1.0
29	24.6609993	-15.75	26.8239994	-5.477609158	-1.293999076	12.18398857	1.0
30	24.6609993	-15.75	26.8239994	-5.373116493	-1.382346749	12.30105114	1.0
[LeftHandThumb2]
27	32.29800034	-18.64699936	18.64699936	3.48067379	9.494092941	2.587463379	1.0
28	32.29800034	-18.64699936	18.64699936	3.370278358	7.810295105	1.29892242	1.0
29	32.29800034	-18.64699936	18.64699936	3.285924911	6.397885323	0.1947134584	1.0
30	32.29800034	-18.64699936	18.64699936	3.3341465	6.383937359	0.04001491517	1.0
[LeftHandThumb3]
27	26.52600098	-15.31499958	15.31499958	3.601811159e-06	-8.438974328e-05	-6.943767221e-05	1.0
28	26.52600098	-15.31499958	15.31499958	3.601811159e-06	-8.438974328e-05	-6.943767221e-05	1.0
29	26.52600098	-15.31499958	15.31499958	3.601811159e-06	-8.438974328e-05	-6.943767221e-05	1.0
30	26.52600098	-15.31499958	15.31499958	3.601811159e-06	-8.438974328e-05	-6.943767221e-05	1.0
[LeftHandThumb4]
27	19.54599953	-11.28499985	11.28499985	0	0	0	1.0
28	19.54599953	-11.28499985	11.28499985	0	0	0	1.0
29	19.54599953	-11.28499985	11.28499985	0	0	0	1.0
30	19.54599953	-11.28499985	11.28499985	0	0	0	1.0
[LeftHandIndex1]
27	91.09299469	-5.170999527	22.60099792	-0.0286503043	-1.135897398	-10.4346571	1.0
28	91.09299469	-5.170999527	22.60099792	0.03818131611	-0.9410371184	-9.480190277	1.0
29	91.09299469	-5.170999527	22.60099792	0.09419997782	-0.7778940201	-8.680880547	1.0
30	91.09299469	-5.170999527	22.60099792	0.09421754628	-0.7778829932	-8.680875778	1.0
[LeftHandIndex2]
27	36.76399994	0	0	-0.5227039456	-0.06857637316	-23.13004112	1.0
28	36.76399994	0	0	-0.3234302104	0.3735974729	-19.72852325	1.0
29	36.76399994	0	0	-0.1557376087	0.7435880303	-16.87996101	1.0
30	36.76399994	0	0	-0.1557366401	0.7436032891	-16.87995911	1.0
[LeftHandIndex3]
27	28.83100128	0	0	-1.432096042e-06	3.907105395e-07	1.552835329e-06	1.0
28	28.83100128	0	0	-1.432096042e-06	3.907105395e-07	1.552835329e-06	1.0
29	28.83100128	0	0	-1.432096042e-06	3.907105395e-07	1.552835329e-06	1.0
30	28.83100128	0	0	-1.432096042e-06	3.907105395e-07	1.552835329e-06	1.0
[LeftHandIndex4]
27	23.92700005	0	0	0	0	0	1.0
28	23.92700005	0	0	0	0	0	1.0
29	23.92700005	0	0	0	0	0	1.0
30	23.92700005	0	0	0	0	0	1.0
[LeftHandMiddle1]
27	95.33399963	0	0	-0.7470802069	-0.123576127	-18.67735481	1.0
28	95.33399963	0	0	-0.6442143321	0.03859223425	-17.22883034	1.0
29	95.33399963	0	0	-0.5579442978	0.1743258983	-16.01578903	1.0
30	95.33399963	0	0	-0.5579309464	0.1743538827	-16.0158062	1.0
[LeftHandMiddle2]
27	36.98199844	0	0	-0.4400959313	-1.559936881	-20.86993027	1.0
28	36.98199844	0	0	-0.3108475506	-1.139534235	-17.26730537	1.0
29	36.98199844	0	0	-0.2017966956	-0.7876659036	-14.25036526	1.0
30	36.98199844	0	0	-0.2017894685	-0.7876875401	-14.25035667	1.0
[LeftHandMiddle3]
27	29.50900078	0	0	0	-3.180554719e-15	-7.951386796e-16	1.0
28	29.50900078	0	0	0	-3.180554719e-15	-7.951386796e-16	1.0
29	29.50900078	0	0	0	-3.180554719e-15	-7.951386796e-16	1.0
30	29.50900078	0	0	0	-3.180554719e-15	-7.951386796e-16	1.0
[LeftHandMiddle4]
27	28.3390007	0	0	0	0	0	1.0
28	28.3390007	0	0	0	0	0	1.0
29	28.3390007	0	0	0	0	0	1.0
30	28.3390007	0	0	0	0	0	1.0
[LeftHandRing1]
27	91.04499817	-0.4390000105	-18.65100098	-2.97552824	5.462043285	-29.78375626	1.0
28	91.04499817	-0.4390000105	-18.65100098	-2.917327881	5.714324474	-28.21104431	1.0
29	91.04499817	-0.4390000105	-18.65100098	-2.8684237	5.925538063	-26.89398766	1.0
30	91.04499817	-0.4390000105	-18.65100098	-2.868412971	5.925564289	-26.89401245	1.0
[LeftHandRing2]
27	31.54000092	0	0	1.461324453	-2.394124746	-29.79668617	1.0
28	31.54000092	0	0	1.182642221	-2.254609823	-26.18150139	1.0
29	31.54000092	0	0	0.9494904876	-2.13722682	-23.15406799	1.0
30	31.54000092	0	0	0.9494791627	-2.137223244	-23.15405846	1.0
[LeftHandRing3]
27	29.37700081	0	0	1.590277359e-15	3.180554719e-15	-7.951386796e-16	1.0
28	29.37700081	0	0	1.590277359e-15	3.180554719e-15	-7.951386796e-16	1.0
29	29.37700081	0	0	1.590277359e-15	3.180554719e-15	-7.951386796e-16	1.0
30	29.37700081	0	0	1.590277359e-15	3.180554719e-15	-7.951386796e-16	1.0
[LeftHandRing4]
27	26.47500038	0	0	0	0	0	1.0
28	26.47500038	0	0	0	0	0	1.0
29	26.47500038	0	0	0	0	0	1.0
30	26.47500038	0	0	0	0	0	1.0
[LeftHandPinky1]
27	80.77799988	-4.887000084	-38.06099701	-3.815490007	10.70493603	-28.59468651	1.0
28	80.77799988	-4.887000084	-38.06099701	-3.792973757	11.18560791	-27.00229263	1.0
29	80.77799988	-4.887000084	-38.06099701	-3.773622513	11.58826923	-25.66710854	1.0
30	80.77799988	-4.887000084	-38.06099701	-3.77161479	11.58945942	-25.65718842	1.0
[LeftHandPinky2]
27	36	0	0	4.353945255	-4.675082207	-40.88382721	1.0
28	36	0	0	4.056440353	-4.779545784	-38.86912918	1.0
29	36	0	0	3.807817698	-4.866380215	-37.1894989	1.0
30	36	0	0	3.811774254	-4.864320278	-37.2359581	1.0
[LeftHandPinky3]
27	21.14200211	0	0	3.226109357e-06	2.925280342e-06	-5.739977951e-06	1.0
28	21.14200211	0	0	3.226109357e-06	2.925280342e-06	-5.739977951e-06	1.0
29	21.14200211	0	0	3.226109357e-06	2.925280342e-06	-5.739977951e-06	1.0
30	21.14200211	0	0	3.226109357e-06	2.925280342e-06	-5.739977951e-06	1.0
[LeftHandPinky4]
27	19.75699997	0	0	0	0	0	1.0
28	19.75699997	0	0	0	0	0	1.0
29	19.75699997	0	0	0	0	0	1.0
30	19.75699997	0	0	0	0	0	1.0
[RightShoulder]
27	-45.70000076	109.4620056	-26.28000069	0.7138676643	2.845607519	8.55079937	1.0
28	-45.70000076	109.4620056	-26.28000069	0.3831453919	1.613429785	6.027909279	1.0
29	-45.70000076	109.4620056	-26.28000069	0.2564298213	1.228368402	4.517424107	1.0
30	-45.70000076	109.4620056	-26.28000069	1.241179943	5.441457272	8.581155777	1.0
[RightArm]
27	-105.9280014	-5.248000145	-22.32099915	16.43198967	-47.26264954	38.43252563	1.0
28	-105.9280014	-5.248000145	-22.32099915	8.194129944	-60.94535828	43.7436676	1.0
29	-105.9280014	-5.248000145	-22.32099915	-17.95383453	-67.31004333	65.07792664	1.0
30	-105.9280014	-5.248000145	-22.32099915	-27.27859116	-54.49071884	74.3417511	1.0
[RightForeArm]
27	-278.414978	0	0	11.9220562	35.10562515	1.494192719	1.0
28	-278.414978	0	0	7.709670544	35.21897888	2.439169168	1.0
29	-278.414978	0	0	3.967270613	35.42173004	3.087594271	1.0
30	-278.414978	0	0	4.221897125	26.81099129	1.319651723	1.0
[RightHand]
27	-283.2879944	0	0.0009999999311	19.17166901	17.23227501	-11.01398563	1.0
28	-283.2879944	0	0.0009999999311	17.69984818	1.101797462	-10.01530361	1.0
29	-283.2879944	0	0.0009999999311	15.59722137	-12.07580376	-9.079010963	1.0
30	-283.2879944	0	0.0009999999311	10.75583649	-7.749217987	-8.962632179	1.0
[RightHandPinky1]
27	-80.76699829	-4.885000229	-38.06000137	-0.7315430641	-10.50022793	30.2914238	1.0
28	-80.76699829	-4.885000229	-38.06000137	-0.6727135181	-11.08086586	27.87835503	1.0
29	-80.76699829	-4.885000229	-38.06000137	-0.6227310896	-11.56717491	25.85586166	1.0
30	-80.76699829	-4.885000229	-38.06000137	-0.6207436919	-11.56836224	25.84595871	1.0
[RightHandPinky2]
27	-36	0	0.0009999999311	5.050940514	6.746054173	40.305336	1.0
28	-36	0	0.0009999999311	4.733668327	6.761102676	38.56840134	1.0
29	-36	0	0.0009999999311	4.468849659	6.773405552	37.12142944	1.0
30	-36	0	0.0009999999311	4.474374294	6.7733531	37.16808701	1.0
[RightHandPinky3]
27	-21.14200211	0	0	-1.590277359e-15	0	-7.951386796e-16	1.0
28	-21.14200211	0	0	-1.590277359e-15	0	-7.951386796e-16	1.0
29	-21.14200211	0	0	-1.590277359e-15	0	-7.951386796e-16	1.0
30	-21.14200211	0	0	-1.590277359e-15	0	-7.951386796e-16	1.0
[RightHandPinky4]
27	-19.75699997	0	0	0	0	0	1.0
28	-19.75699997	0	0	0	0	0	1.0
29	-19.75699997	0	0	0	0	0	1.0
30	-19.75699997	0	0	0	0	0	1.0
[RightHandRing1]
27	-91.03599548	-0.4390000105	-18.65100098	-1.608411193	-5.655635357	30.13356781	1.0
28	-91.03599548	-0.4390000105	-18.65100098	-1.47963655	-5.856470108	27.91911888	1.0
29	-91.03599548	-0.4390000105	-18.65100098	-1.371476173	-6.024544716	26.06464005	1.0
30	-91.03599548	-0.4390000105	-18.65100098	-1.371474862	-6.02455616	26.06464195	1.0
[RightHandRing2]
27	-31.54000092	0	0	1.464720249	2.925012589	27.80269623	1.0
28	-31.54000092	0	0	1.201598048	2.733237743	24.78467369	1.0
29	-31.54000092	0	0	0.9815348983	2.572203875	22.25733566	1.0
30	-31.54000092	0	0	0.981551528	2.572203159	22.25733185	1.0
[RightHandRing3]
27	-29.37700081	0	0	5.740008078e-07	-7.531911024e-07	-2.69121324e-06	1.0
28	-29.37700081	0	0	5.740008078e-07	-7.531911024e-07	-2.69121324e-06	1.0
29	-29.37700081	0	0	5.740008078e-07	-7.531911024e-07	-2.69121324e-06	1.0
30	-29.37700081	0	0	5.740008078e-07	-7.531911024e-07	-2.69121324e-06	1.0
[RightHandRing4]
27	-26.47500038	0	0	0	0	0	1.0
28	-26.47500038	0	0	0	0	0	1.0
29	-26.47500038	0	0	0	0	0	1.0
30	-26.47500038	0	0	0	0	0	1.0
[RightHandMiddle1]
27	-95.32500458	0	0	-1.997566462	0.3167199194	20.3884697	1.0
28	-95.32500458	0	0	-1.919167399	0.1833951324	19.22399902	1.0
29	-95.32500458	0	0	-1.85342896	0.0717895925	18.2488308	1.0
30	-95.32500458	0	0	-1.853412509	0.07177615166	18.2488327	1.0
[RightHandMiddle2]
27	-36.98199844	0	0	-0.6139376163	1.432142496	23.63735199	1.0
28	-36.98199844	0	0	-0.4675493538	1.045312881	19.75357819	1.0
29	-36.98199844	0	0	-0.3441504836	0.7216079235	16.50119209	1.0
30	-36.98199844	0	0	-0.3441687226	0.7216203809	16.50118256	1.0
[RightHandMiddle3]
27	-29.50900078	0	0	1.856611448e-06	-0.002022909233	1.577868488e-06	1.0
28	-29.50900078	0	0	1.856611448e-06	-0.002022909233	1.577868488e-06	1.0
29	-29.50900078	0	0	1.856611448e-06	-0.002022909233	1.577868488e-06	1.0
30	-29.50900078	0	0	1.856611448e-06	-0.002022909233	1.577868488e-06	1.0
[RightHandMiddle4]
27	-28.3390007	0	0.0009999999311	0	0	0	1.0
28	-28.3390007	0	0.0009999999311	0	0	0	1.0
29	-28.3390007	0	0.0009999999311	0	0	0	1.0
30	-28.3390007	0	0.0009999999311	0	0	0	1.0
[RightHandIndex1]
27	-91.08300018	-5.167999744	22.60099792	-1.272613049	1.159407616	10.66603374	1.0
28	-91.08300018	-5.167999744	22.60099792	-1.195208192	0.9518086314	9.585639954	1.0
29	-91.08300018	-5.167999744	22.60099792	-1.130324006	0.7780110836	8.680873871	1.0
30	-91.08300018	-5.167999744	22.60099792	-1.130326867	0.7780143023	8.680867195	1.0
[RightHandIndex2]
27	-36.76399994	0	0	-0.5435184836	-0.5632811785	21.78838348	1.0
28	-36.76399994	0	0	-0.3612750173	-0.8548275828	19.10679245	1.0
29	-36.76399994	0	0	-0.2082367241	-1.098747015	16.86112404	1.0
30	-36.76399994	0	0	-0.2082575858	-1.098773956	16.8611412	1.0
[RightHandIndex3]
27	-28.83100128	0	0	-3.180554719e-15	0	0	1.0
28	-28.83100128	0	0	-3.180554719e-15	0	0	1.0
29	-28.83100128	0	0	-3.180554719e-15	0	0	1.0
30	-28.83100128	0	0	-3.180554719e-15	0	0	1.0
[RightHandIndex4]
27	-23.92700005	0	0	0	0	0	1.0
28	-23.92700005	0	0	0	0	0	1.0
29	-23.92700005	0	0	0	0	0	1.0
30	-23.92700005	0	0	0	0	0	1.0
[RightHandThumb1]
27	-24.64799881	-15.72700024	26.82600021	-6.030917645	-0.01214422751	-11.79237366	1.0
28	-24.64799881	-15.72700024	26.82600021	-5.739174843	0.6909131408	-11.99539948	1.0
29	-24.64799881	-15.72700024	26.82600021	-5.477913857	1.294083238	-12.18431091	1.0
30	-24.64799881	-15.72700024	26.82600021	-5.373420238	1.382437348	-12.30136585	1.0
[RightHandThumb2]
27	-32.29800034	-18.64699936	18.64699936	5.394923687	-9.713942528	-2.407322168	1.0
28	-32.29800034	-18.64699936	18.64699936	4.242399216	-7.910014153	-1.214898467	1.0
29	-32.29800034	-18.64699936	18.64699936	3.285828352	-6.396658421	-0.1932773739	1.0
30	-32.29800034	-18.64699936	18.64699936	3.334012747	-6.38270998	-0.03854874521	1.0
[RightHandThumb3]
27	-26.52600098	-15.31399918	15.31399918	-3.81245151e-08	-0.00121095567	-0.001221005921	1.0
28	-26.52600098	-15.31399918	15.31399918	-3.81245151e-08	-0.00121095567	-0.001221005921	1.0
29	-26.52600098	-15.31399918	15.31399918	-3.81245151e-08	-0.00121095567	-0.001221005921	1.0
30	-26.52600098	-15.31399918	15.31399918	-3.81245151e-08	-0.00121095567	-0.001221005921	1.0
[RightHandThumb4]
27	-19.54599953	-11.28499985	11.28499985	0	0	0	1.0
28	-19.54599953	-11.28499985	11.28499985	0	0	0	1.0
29	-19.54599953	-11.28499985	11.28499985	0	0	0	1.0
30	-19.54599953	-11.28499985	11.28499985	0	0	0	1.0
[LeftUpLeg]
27	82.07800293	-67.51699829	-15.99599934	-60.62801361	20.62485123	0.3933749497	1.0
28	82.07800293	-67.51699829	-15.99599934	-76.60316467	21.53098869	-0.4287969768	1.0
29	82.07800293	-67.51699829	-15.99599934	-91.17012787	22.08737183	-0.9185064435	1.0
30	82.07800293	-67.51699829	-15.99599934	-97.92644501	20.81328201	0.4267768264	1.0
[LeftLeg]
27	0	-443.7049866	2.845999956	71.22587585	4.897040844	-5.221852303	1.0
28	0	-443.7049866	2.845999956	84.20111847	5.522112846	-6.333906174	1.0
29	0	-443.7049866	2.845999956	95.9513092	5.974555492	-7.070651054	1.0
30	0	-443.7049866	2.845999956	100.9166336	5.463636398	-5.890111446	1.0
[LeftFoot]
27	0	-444.2789917	-29.8219986	-18.1176815	-1.091122627	-13.17867279	1.0
28	0	-444.2789917	-29.8219986	-23.50653648	-1.115723252	-9.789934158	1.0
29	0	-444.2789917	-29.8219986	-27.66249084	-1.122761369	-7.067677021	1.0
30	0	-444.2789917	-29.8219986	-25.29394341	-1.077495456	-7.942366123	1.0
[LeftToeBase]
27	0	-87.28699493	107.1060028	-5.171133518	0.05196263641	0.4657085538	1.0
28	0	-87.28699493	107.1060028	-2.87311101	0.02417179383	0.2166093886	1.0
29	0	-87.28699493	107.1060028	-0.9596141577	4.103913852e-06	1.252903189e-06	1.0
30	0	-87.28699493	107.1060028	-1.349921942	-6.63058745e-06	-2.036368727e-07	1.0
[RightUpLeg]
27	-82.07800293	-67.51699829	-15.99599934	-63.50172043	-5.819530487	-3.098033905	1.0
28	-82.07800293	-67.51699829	-15.99599934	-79.29391479	-4.292546749	-1.647081256	1.0
29	-82.07800293	-67.51699829	-15.99599934	-93.54415894	-2.827351809	-0.3415336609	1.0
30	-82.07800293	-67.51699829	-15.99599934	-99.44745636	-1.736819267	0.2482376099	1.0
[RightLeg]
27	0	-443.7049866	2.861999989	68.5919342	4.914361	3.949579477	1.0
28	0	-443.7049866	2.861999989	82.19265747	2.786237955	1.679589868	1.0
29	0	-443.7049866	2.861999989	94.37099457	1.08805275	-0.6205931902	1.0
30	0	-443.7049866	2.861999989	98.97174072	1.700092673	-2.892801285	1.0
[RightFoot]
27	0	-444.2770081	-29.83799934	-21.70414352	0.9314740896	8.328025818	1.0
28	0	-444.2770081	-29.83799934	-23.51855278	0.6144561172	6.219002724	1.0
29	0	-444.2770081	-29.83799934	-24.70903778	0.3653798401	4.634139538	1.0
30	0	-444.2770081	-29.83799934	-22.77413177	0.4615483582	5.300139904	1.0
[RightToeBase]
27	0	-87.28699493	107.1060028	-3.712626219	-5.53025302e-07	-2.5266595e-06	1.0
28	0	-87.28699493	107.1060028	-3.270310163	-8.051538885e-07	-1.24715018e-06	1.0
29	0	-87.28699493	107.1060028	-2.891696215	-7.440748391e-07	-4.961854643e-07	1.0
30	0	-87.28699493	107.1060028	-2.855690241	6.849373904e-07	-2.244321877e-06	1.0
[EndOfFile]
